<svg height="463pt" viewBox="-4 0 463 463.92309" width="463pt" xmlns="http://www.w3.org/2000/svg"><path d="m367.089844 352v-64l80-80c8.835937-8.835938 8.835937-23.164062 0-32-8.835938-8.835938-23.164063-8.835938-32 0l-48 48v-80c0-79.527344-64.472656-144-144-144-79.53125 0-144 64.472656-144 144v72l-40-40c-8.835938-8.835938-23.164063-8.835938-32 0-8.835938 8.835938-8.835938 23.164062 0 32l72 72c9.191406 76 37.773437 159.503906 112 176 91.953125 20.75 188.386718.296875 264-56 0 0-88 0-88-48zm0 0" fill="#d0bafa"/><path d="m127.578125 135.609375c-10.453125 10.863281-16.351563 25.316406-16.488281 40.390625-.144532 12.773438 4.867187 25.066406 13.898437 34.097656 9.035157 9.035156 21.328125 14.046875 34.101563 13.902344 48 0 56-48 56-48zm0 0" fill="#fcf05a"/><path d="m319.089844 136c10.300781 10.765625 16.03125 25.101562 16 40 .140625 12.773438-4.871094 25.066406-13.902344 34.097656-9.03125 9.035156-21.324219 14.046875-34.097656 13.902344-48 0-56-48-56-48zm0 0" fill="#fcf05a"/><path d="m263.089844 288c0 26.511719-9.914063 48-32 48-25.851563-1.523438-46.476563-22.148438-48-48 0-26.511719 9.910156-48 32-48 25.851562 1.523438 46.476562 22.148438 48 48zm0 0" fill="#d9176c"/><path d="m151.089844 264c-21.566406.023438-41.855469-10.207031-54.65625-27.558594l13.289062-8.914062c9.800782 12.949218 25.125 20.53125 41.367188 20.472656zm0 0" fill="#e56ca6"/><path d="m287.089844 264v-16c.351562 0 35.960937-.34375 49.351562-20.441406l13.3125 8.882812c-18.167968 27.246094-60.855468 27.558594-62.664062 27.558594zm0 0" fill="#e56ca6"/><path d="m447.089844 320c0 13.253906-10.746094 24-24 24s-24-10.746094-24-24 10.746094-24 24-24 24 10.746094 24 24zm0 0" fill="#87cee9"/><path d="m79.089844 408c0 17.671875-14.328125 32-32 32-17.675782 0-32-14.328125-32-32s14.324218-32 32-32c17.671875 0 32 14.328125 32 32zm0 0" fill="#87cee9"/><g fill="#5c067c"><path d="m127.089844 72h16v16h-16zm0 0"/><path d="m159.089844 56h16v16h-16zm0 0"/><path d="m343.089844 392h16v16h-16zm0 0"/></g></svg>